<?xml version="1.0" standalone="no"?>
<!DOCTYPE svg PUBLIC "-//W3C//DTD SVG 1.1//EN" "http://www.w3.org/Graphics/SVG/1.1/DTD/svg11.dtd" >
<svg xmlns="http://www.w3.org/2000/svg">
<metadata>
Created by FontForge 20120731 at Wed Nov 16 15:51:16 2016
 By admin
</metadata>
<defs>
<font id="iconfont" horiz-adv-x="1024" >
  <font-face 
    font-family="iconfont"
    font-weight="500"
    font-stretch="normal"
    units-per-em="1024"
    panose-1="2 0 6 3 0 0 0 0 0 0"
    ascent="896"
    descent="-128"
    x-height="792"
    bbox="-1 -148 1349 896.429"
    underline-thickness="0"
    underline-position="0"
    unicode-range="U+0078-E642"
  />
<missing-glyph 
 />
    <glyph glyph-name=".notdef" 
 />
    <glyph glyph-name=".notdef" 
 />
    <glyph glyph-name=".null" horiz-adv-x="0" 
 />
    <glyph glyph-name="nonmarkingreturn" horiz-adv-x="341" 
 />
    <glyph glyph-name="x" unicode="x" horiz-adv-x="1001" 
d="M281 543q-27 -1 -53 -1h-83q-18 0 -36.5 -6t-32.5 -18.5t-23 -32t-9 -45.5v-76h912v41q0 16 -0.5 30t-0.5 18q0 13 -5 29t-17 29.5t-31.5 22.5t-49.5 9h-133v-97h-438v97zM955 310v-52q0 -23 0.5 -52t0.5 -58t-10.5 -47.5t-26 -30t-33 -16t-31.5 -4.5q-14 -1 -29.5 -0.5
t-29.5 0.5h-32l-45 128h-439l-44 -128h-29h-34q-20 0 -45 1q-25 0 -41 9.5t-25.5 23t-13.5 29.5t-4 30v167h911zM163 247q-12 0 -21 -8.5t-9 -21.5t9 -21.5t21 -8.5q13 0 22 8.5t9 21.5t-9 21.5t-22 8.5zM316 123q-8 -26 -14 -48q-5 -19 -10.5 -37t-7.5 -25t-3 -15t1 -14.5
t9.5 -10.5t21.5 -4h37h67h81h80h64h36q23 0 34 12t2 38q-5 13 -9.5 30.5t-9.5 34.5q-5 19 -11 39h-368zM336 498v228q0 11 2.5 23t10 21.5t20.5 15.5t34 6h188q31 0 51.5 -14.5t20.5 -52.5v-227h-327z" />
    <glyph glyph-name="43" unicode="&#xe615;" 
d="M205 152q0 14 -9.5 23.5t-23.5 9.5h-66q-14 0 -23.5 -9.5t-9.5 -23.5t9.5 -23.5t23.5 -9.5h66q14 0 23.5 9.5t9.5 23.5zM74 416.5q0 -13.5 10 -23t23 -9.5h65q14 0 23.5 9.5t9.5 23t-9.5 23.5t-23.5 10h-65q-13 0 -23 -10t-10 -23.5zM867 812l-66 2q0 14 -9.5 23.5
t-23.5 9.5h-594q-14 0 -23.5 -9.5t-9.5 -23.5v-64h33q2 0 6.5 -1t16 -5.5t20 -11t16 -19.5t7.5 -29q0 -3 -0.5 -7.5t-4 -16t-10 -20t-20.5 -16t-33 -7.5l-31 -2v-130h31q3 0 7.5 -0.5t16.5 -4t21 -10.5t16 -21.5t7 -33.5q0 -3 -1 -7.5t-5.5 -15.5t-11 -19.5t-20 -15
t-30.5 -6.5h-31l-1 -131h33q3 0 7.5 -0.5t15.5 -4.5t20 -10.5t16 -20.5t7 -32q0 -3 -0.5 -7.5t-4 -16.5t-10 -21t-20.5 -16t-33 -7l-30 2v-66q1 -4 4 -11t12.5 -24t20 -30t26.5 -24t32 -11h633q4 1 9 2.5t13.5 9.5t8.5 19v828v0q0 4 -2 9.5t-10.5 14.5t-20.5 9zM305 615h430
v-264h-430v264zM801 -14h-563q-3 2 -9 4.5t-15.5 11t-9.5 19.5h564q14 0 23.5 9.5t9.5 23.5v730l34 -11v-756q0 -3 -0.5 -8t-9 -14t-24.5 -9zM106 648h66q14 0 23.5 10t9.5 23.5t-9.5 23.5t-23.5 10h-66q-14 0 -23.5 -10t-9.5 -23.5t9.5 -23.5t23.5 -10zM652 549h-265
q-6 0 -11 -5t-5 -11.5t5 -11.5t11 -5h265q7 0 12 5t5 11.5t-5 11.5t-12 5zM652 450h-265q-6 0 -11 -5t-5 -12t5 -11.5t11 -4.5h265q7 0 12 4.5t5 11.5t-5 12t-12 5z" />
    <glyph glyph-name="msg" unicode="&#xe639;" 
d="M66 865l1 -505h94v-189l183 183l-29 29l-113 -113v131h-95v423h610v-144h41v185h-692zM391 633h598v-506h-92v-191l-192 191h-314v506zM432 168h290l134 -134v134h92v424h-516v-424z" />
    <glyph glyph-name="rili" unicode="&#xe636;" 
d="M918 -118q0 -12 -9 -21t-21 -9h-752q-12 0 -21 9t-9 21v743q0 13 9 21.5t21 8.5h95v-30q0 -39 27.5 -66t66 -27t66 27t27.5 66v30h188v-30q0 -39 27.5 -66t66 -27t66 27t27.5 66v30h95q12 0 21 -8.5t9 -21.5v-743v0zM856 439h-688v-525h688v525v0zM325 285h-94v92h94v-92
zM325 130h-94v93h94v-93zM325 -25h-94v93h94v-93zM481 285h-94v92h94v-92zM481 130h-94v93h94v-93zM481 -25h-94v93h94v-93zM637 285h-94v92h94v-92zM637 130h-94v93h94v-93zM637 -25h-94v93h94v-93zM793 285h-94v92h94v-92zM793 130h-94v93h94v-93zM793 -25h-94v93h94v-93z
M698.5 563q-25.5 0 -43.5 17.5t-18 43.5v63q0 26 18 43.5t43.5 17.5t43.5 -17.5t18 -43.5v-63q0 -26 -18 -43.5t-43.5 -17.5zM323.5 563q-25.5 0 -43.5 17.5t-18 43.5v63q0 26 18 43.5t43.5 17.5t43.5 -17.5t18 -43.5v-63q0 -26 -18 -43.5t-43.5 -17.5z" />
    <glyph glyph-name="book-1" unicode="&#xe600;" 
d="M831 662q-80 1 -151 -18q-74 -19 -140 -60v-457q64 35 125 53q82 23 166 18v42q31 -1 56 9v-81v0v-4q-2 -11 -11 -18.5t-21 -5.5q-89 10 -175 -14q-72 -21 -152 -71h-1v0v0v0v0v0l-1 -1v0v0h-1v0v0v0v-1h-1v0v0v0v0v0h-1v0v0v0v0l-1 -1v0v0h-1v0v0v0v0h-1v0v-1h-1v0v0v0
v0v0h-1v0v0v0h-1v0v0v0h-1v0v0v0v0v0l-1 -1v0v0v0h-1v0v0v0h-1v0v0v0v0h-1v0v0h-1v0h-1v0v0v0v0h-1v0v0v0h-1v0v0v0v1h-1v0v0v0v0h-1v0v0h-1v0v0v0h-1v0v0v0h-1v1v0h-1v0v0v0v0h-1v0v0l-1 1v0v0v0v0h-1v0v0v0v0v0h-1v1v0v0h-1v0l-1 1v0v0v0v0h-1q-80 50 -152 71
q-86 24 -175 14q-12 -2 -21 5.5t-11 18.5v4v0v77q26 -7 56 -4v-43q84 5 166 -18q61 -18 125 -53v457q-66 41 -140 60q-71 19 -151 18v-159q-30 4 -56 2v184q0 11 8.5 19.5t19.5 8.5h1q191 10 347 -85q155 95 346 85h1q11 0 19.5 -8.5t8.5 -19.5v-185q-25 4 -56 1v157v0z
M787 460q-2 -18 -3 -37l24 -8l-24 -4q-1 -19 -1 -39l20 -8l-19 -3q1 -20 3 -41l17 -4l-17 -3q2 -14 4 -30q68 -19 100 10q27 24 37 65.5t-3 82.5q-7 20 -37.5 25.5t-54 2.5t-46.5 -9v0zM224 460q-23 6 -46.5 9t-54 -2.5t-37.5 -25.5q-13 -41 -3 -82.5t37 -65.5
q32 -29 100 -10q2 15 3 30l-16 3l17 4q2 21 3 41l-19 3l19 8q1 20 0 39l-24 4l24 8q-1 19 -3 37z" />
    <glyph glyph-name="kaoqin" unicode="&#xe605;" 
d="M400 -73q-18 0 -25 14q-13 29 -73 122q-33 51 -79 147q-36 77 -57 108q-24 38 -2 72q12 19 35.5 30.5t51.5 11.5q30 0 63 -19v225q0 14 4.5 28t14.5 28.5t28.5 23.5t43.5 9q40 0 63 -23q27 -26 24 -66v-99q18 6 42 6q55 -1 80 -30q5 -6 9 -13q21 8 49 7q40 -3 62 -28
q10 -10 16 -25q22 9 49 4q30 -6 48 -26.5t23 -40.5t3 -38v-95q-1 -31 -6 -61.5t-13 -56t-17.5 -49.5t-20 -43.5t-20.5 -36.5t-19.5 -30t-16.5 -21.5t-12 -14l-5 -5.5q-1 -4 -4 -7q-9 -9 -22 -8h-317zM251 376q-30 0 -42 -17q-6 -11 3 -25q36 -56 60 -106q44 -93 75 -141
q17 -26 33 -49.5t24 -36t12 -19.5h296q1 2 8.5 8.5t16.5 19.5t21 36t27 68t30 106q6 27 7.5 59t-0.5 51l-2 19q0 1 1 2q-1 1 -0.5 5.5t-1 12.5t-4.5 15.5t-10 14t-18 8.5q-4 1 -8 1q-17 0 -24 -24l-3 -13q-4 -15 -30 -11q-10 1 -16 8.5t-6 16.5h1l2 6q5 36 -9 52
q-8 9 -26 10t-27 -4t-11 -22l1 -14q0 -10 -6.5 -17t-17 -8t-18.5 4.5t-10 14.5q-3 11 -2 22l-1 14q0 4 1 7v8q4 10 -5 20.5t-37 11.5v0q-37 0 -43 -30v-39q0 -9 -6.5 -16t-16.5 -8q-11 -1 -22 5t-13 15q-6 28 -2 55l-1 157v3q1 20 -9 32q-6 8 -16 8v0q-11 0 -18 -3.5
t-9.5 -10t-3.5 -12t-0.5 -11l0.5 -5.5l-1 -280q0 -8 -11 -14.5t-22 -8.5q-25 -4 -29 7q-19 42 -61 42v0v0v0zM401.5 839q-78.5 0 -134 -45t-55.5 -108.5t56 -108.5v87q-3 11 -3 22q0 45 40 77.5t96.5 32.5t96.5 -32.5t40 -77.5q0 -17 -6 -34v-78q59 46 59 112
q0 63 -55.5 108t-134 45z" />
    <glyph glyph-name="tiaojianxing" unicode="&#xe606;" 
d="M831 246q1 3 1 6v155q0 28 -19.5 47.5t-47.5 19.5h-224v78q46 9 76.5 45.5t30.5 84.5q0 54 -39 93t-93.5 39t-93 -39t-38.5 -93q0 -48 30 -84.5t76 -45.5v-78h-224q-28 0 -47.5 -19.5t-19.5 -47.5v-154q-42 -12 -70 -47.5t-28 -80.5q0 -55 39 -93.5t93.5 -38.5t93 38.5
t38.5 93.5q0 50 -33 87t-81 44v151q0 7 4.5 11.5t10.5 4.5h499q7 0 11.5 -4.5t4.5 -11.5v-155v-6q-46 -8 -76.5 -44.5t-30.5 -84.5q0 -55 39 -93.5t93.5 -38.5t93 38.5t38.5 93.5q0 48 -30.5 84.5t-76.5 44.5zM435 681.5q0 33.5 23.5 57.5t57 24t57 -24t23.5 -57.5
t-23.5 -57t-57 -23.5t-57 23.5t-23.5 57zM314 125q0 -33 -23.5 -57t-57 -24t-57.5 24t-24 57t24 57t57.5 24t57 -24t23.5 -57zM806.5 36q-33.5 0 -57.5 23.5t-24 57t24 57.5t57.5 24t57 -24t23.5 -57.5t-23.5 -57t-57 -23.5z" />
    <glyph glyph-name="dot" unicode="&#xe635;" 
d="M330 288q0 -76 53 -129t129 -53t129 53t53 129t-53 129t-129 53t-129 -53t-53 -129z" />
    <glyph glyph-name="video" unicode="&#xe642;" 
d="M706 497h-393v-88v-58v-102v-58v-89h393v395zM620 293l-184 -96q-3 -2 -6 -2q-2 0 -5 1q-5 2 -5 7v193q0 5 5.5 7t10.5 0l184 -97q5 -2 5 -6.5t-5 -6.5zM761 191h69v-89h-69v89zM761 351h69v-102h-69v102zM896 748h-768q-48 0 -56 -8t-8 -56v-768q0 -48 8 -55.5t56 -7.5
h767q48 0 56 7.5t8 55.5v768q0 48 -8 56t-55 8zM888 44h-755v511h755v-511zM761 497h69v-88h-69v88zM191 351h67v-102h-67v102zM191 497h67v-88h-67v88zM191 191h67v-89h-67v89z" />
    <glyph glyph-name="42" unicode="&#xe607;" 
d="M350 -8h-139q-47 5 -71.5 36.5t-18.5 74.5v221q2 26 19.5 40t36.5 17h3h68v-51h-66q-9 -2 -10 -9l-1 -224q0 -27 9 -38q11 -14 35 -17h135v-50zM829 -8h-478q-25 0 -42.5 17t-17.5 42v650q0 24 17.5 41.5t42.5 17.5h478q24 0 41.5 -17.5t17.5 -41.5v-650q0 -25 -17.5 -42
t-41.5 -17zM351 709q-9 0 -9 -8v-650q0 -9 9 -9h478q8 0 8 9v650q0 8 -8 8h-478zM400 568h377v-51h-377v51zM400 435h377v-51h-377v51zM400 302h309v-51h-309v51z" />
    <glyph glyph-name="21" unicode="&#xe608;" 
d="M427 615h279q24 0 40.5 16.5t16.5 40.5v87h-98v53h-197v-53h-98v-87q0 -24 16.5 -40.5t40.5 -16.5zM496 784h142v-25h-142v25zM317 304v377h30v46h-76v-436q22 9 41 12q1 0 3 1h2zM786 727v-46h30v-522q0 -35 -24.5 -59.5t-59.5 -24.5h-203q-5 -24 -17 -47h234
q48 0 82 34.5t34 82.5v582h-76zM272 262q-39 -20 -63 -58t-24 -84q0 -53 29.5 -93t71 -56.5t90.5 -8t85 45.5q26 28 38 60.5t8 62.5t-17 58.5t-37 49t-52 32.5t-62 10t-67 -19zM434 152l-100 -101q-8 -7 -18.5 -7t-17.5 7l-41 41q-8 8 -8 18.5t7.5 18t18 7.5t18.5 -8l23 -23
l83 83q7 7 17.5 7t18 -7.5t7.5 -18t-8 -17.5z" />
    <glyph glyph-name="arrow-right" unicode="&#xe637;" 
d="M596 370l-206 197q-6 8 -5.5 18t8.5 16.5t18.5 6t16.5 -8.5l206 -197q6 -8 5.5 -18.5t-8.5 -17t-18.5 -5.5t-16.5 9zM390 200l206 198q6 7 16.5 8t18.5 -5.5t8.5 -16.5t-5.5 -18l-206 -197q-6 -8 -16.5 -9t-18.5 5.5t-8.5 16.5t5.5 18z" />
    <glyph glyph-name="23" unicode="&#xe632;" 
d="M65 638h893v-63h-893v63zM769 756l188 -116l-33 -54l-188 116zM741 498l181 127l36 -51l-181 -127zM64 191h893v-63h-893v63zM287 256l-188 -117l-33 54l188 116zM100 181l183 -125l-36 -52l-182 125z" />
    <glyph glyph-name="64" unicode="&#xe624;" 
d="M61 16q18 42 47 78q30 38 66 60t65 27.5t64.5 17t61.5 29.5l6 -15q17 -43 27 -65.5t29 -56t43 -62.5l10 91l-32 59q-7 12 -1 24q24 -12 63 -12.5t64 11.5q4 -12 -1 -21l-33 -61l10 -91q8 10 15.5 20.5t13 18.5t12.5 20t10.5 18.5t10 20.5t9 19t9.5 20.5t8.5 19.5t8.5 22
t9 22q24 -18 59.5 -29.5t64.5 -18t66 -28.5t66 -60q29 -36 47 -78q-66 -73 -194.5 -110t-262.5 -34.5t-258 40.5t-183 104v0v0zM700 551q2 24 -2 48q-189 44 -377 0q-3 -23 -1 -48q-20 -28 -14 -87q7 -72 39 -91q9 -39 38.5 -75t68.5 -58q60 -33 120 3q38 23 66 57.5
t37 72.5q32 19 39 91q6 60 -14 87zM685.5 467q-2.5 -29 -11.5 -49t-18 -20q-5 0 -6 -5q-8 -39 -32.5 -72.5t-57.5 -51.5q-27 -15 -47.5 -15.5t-49.5 13.5q-34 17 -59.5 51t-33.5 75q-1 5 -6 5q-9 0 -18 20t-12 49t2 49t14 20t17 -19q3 -5 6.5 -7.5t5.5 1.5q1 2 2 30
q0 11 4 13t13 -2q23 -6 104 7.5t109 26.5q12 5 17 -2q4 -4 6 -13q3 -9 5 -44q1 -7 1 -8q0 -5 1 -7t2.5 -2t3.5 1q3 2 7 10q8 15 16 15q9 0 13.5 -20t2 -49zM133 833l440 61q13 3 22 2t21 -9l162 -110v-92l-94 -10l13 -59q-187 45 -374 0l25 109q10 45 85 55q77 10 153 0
q44 -5 64 -21q-14 15 -30 21t-44 10q-79 10 -150 1q-29 -4 -47.5 -11t-29.5 -21t-15.5 -26.5t-10.5 -37.5l-194 127q-5 3 -4 7t8 4v0zM803 626q5 -1 5 -6l1 -12q0 -4 -1.5 -7t-0.5 -6v-14q0 -2 2 -5.5t2 -6.5l12 -100q-5 -9 -28 -9t-28 9l12 101q0 2 1.5 5.5t1.5 5.5l1 14
q0 2 -1 6t-1 7l1 12q0 5 4 6v160h8q9 0 9 -8v-17l80 -52q5 -3 4 -7t-6 -4l-78 -10v-62z" />
    <glyph glyph-name="33" unicode="&#xe60a;" 
d="M956 665q-51 42 -102 64q-25 12 -58.5 18.5t-55.5 6.5l-21 1q-56 4 -113 -23q-26 -12 -50.5 -28t-36.5 -26l-12 -10q-59 45 -110 68q-23 11 -54.5 15.5t-51.5 3.5h-20q-71 -4 -116.5 -24.5t-87.5 -68.5v0v-628q64 55 103 71q17 7 41.5 11t40.5 4h16q72 -8 115 -26
q19 -7 50 -27.5t52 -37.5l22 -16q51 55 92 75q31 16 66 24t54 7h19q43 -2 102 -24q24 -9 53.5 -24.5t46.5 -26.5l17 -11l-1 632v0zM485 82q-5 3 -13 9t-32.5 21t-49 26.5t-58.5 20.5t-64 8q-68 -1 -104 -15t-60 -38v525q1 3 4.5 7.5t17 16.5t31 22t48 18.5t67.5 9.5
q38 4 77.5 -6.5t67 -26t45.5 -29.5t21 -21q2 -13 2 -548v0zM915 102q-24 24 -76 45t-119 22q-30 1 -60.5 -8t-52.5 -22t-40 -26.5t-27.5 -22t-9.5 -9.5q-1 529 2 548q5 8 19.5 20.5t40 28.5t66 26t85.5 8q32 -1 61 -9t49 -18.5t35 -20.5t22 -17l7 -7q-2 -507 -2 -538v0z
M915 102z" />
    <glyph glyph-name="51" unicode="&#xe60c;" 
d="M685 548h-345q-20 0 -34.5 14.5t-14.5 34.5v128q0 20 14.5 34t34.5 14h59q5 43 37.5 71t75.5 28t75.5 -28t38.5 -71h59q20 0 34 -14t14 -34v-128q0 -20 -14 -34.5t-34 -14.5zM340 726q-2 0 -2 -1v-128q0 -2 2 -2h345q1 0 1 2v128q0 1 -1 1h-108l2 26q1 3 1 6
q0 28 -20 47.5t-48 19.5t-47.5 -19.5t-19.5 -47.5v-6l2 -26h-107zM312 133h399v-47h-399v47zM312 283h399v-47h-399v47zM312 433h399v-47h-399v47zM816 -72h-611q-24 0 -41.5 17.5t-17.5 41.5v638q0 24 17.5 41.5t41.5 17.5h84v40q0 20 14.5 34.5t34.5 14.5h59
q6 42 38.5 70.5t75.5 28.5t75.5 -28.5t38.5 -70.5h59q20 0 34.5 -14.5t14.5 -34.5v-40h83q25 0 42 -17.5t17 -41.5v-638q0 -24 -17 -41.5t-42 -17.5zM205 636q-4 0 -7.5 -3.5t-3.5 -7.5v-638q0 -5 3.5 -8.5t7.5 -3.5h611q5 0 8.5 3.5t3.5 8.5v638q0 4 -3.5 7.5t-8.5 3.5
h-131v88q0 2 -1 2h-108l2 25q1 4 1 6q0 28 -20 48t-48 20t-48 -20t-20 -48v-6l3 -25h-108q-2 0 -2 -2v-88h-131z" />
    <glyph glyph-name="63" unicode="&#xe60d;" 
d="M857 506q-9 4 -17 -2l-199 -154q-6 -5 -6 -12v-80q0 -10 9 -14q3 -2 7 -2q6 0 10 3l199 155q6 4 6 12v80q0 10 -9 14zM834 420l-167 -129v39l167 129v-39zM914 719q-31 15 -59 -6q-3 -3 -8 -7q-45 -2 -79 30v21q0 11 -6.5 22t-17.5 16q-22 11 -46 -7l-16.5 -11t-42.5 -29
t-51 -36v97q0 10 -8.5 14.5t-16.5 -1.5l-3.5 -2t-11.5 -7.5t-15 -10.5q-81 -6 -144 30v48q0 10 -8.5 14.5t-16.5 -1.5q-202 -130 -231 -147q-20 -11 -33 -29t-16 -33t-5 -28t0 -15v-484q0 -33 31 -55q44 -31 118 -31q39 0 70 11q3 1 5 3l54 44v-122q0 -60 56 -97.5
t128 -37.5q58 0 99 25q30 18 138 100t141 109q26 16 26 47v516q0 35 -31 50zM717 762q9 7 13 5q6 -3 6 -10v-28q0 -6 4 -10q26 -30 70 -41q-189 -146 -227 -170q-40 -24 -83 -24q-18 0 -34 5q-35 9 -44 30q-8 17 2 39q7 7 11 10q11 7 43 29.5t71.5 50t77 53t64 43.5z
M149 718q29 17 208 133v-29q0 -8 7 -13q6 -4 16.5 -9.5t41.5 -15.5t63 -13q-180 -119 -218 -142q-89 -53 -132 -29q-24 14 -24 53v0q3 45 38 65zM285 111q-36 -11 -83 -6t-73 23q-18 13 -18 29v421q4 -3 9 -6q59 -33 164 29q44 27 259 170h0.5h1.5q6 1 11 6v-81q0 -2 1 -5
q-118 -81 -141 -98q-32 -24 -47 -52q-12 -22 -12 -41v-330zM913 153q0 -13 -12 -21q-230 -179 -277 -207q-34 -21 -83 -21q-60 0 -106 28.5t-46 74.5v469v0v4q0 18 2 29q1 -1 1 -3q15 -35 66 -48q20 -6 42 -6q52 0 99 29q50 30 276 206q12 9 25 3t13 -21v-516z" />
    <glyph glyph-name="22" unicode="&#xe60e;" 
d="M811 336q39 74 39 158q0 91 -45 168.5t-122.5 123t-169 45.5t-169.5 -45.5t-123 -123t-45 -168.5q0 -84 40 -158l-143 -232l175 -36l118 -131l125 215l2 6q10 -1 20 -1t20 1l2 -6l126 -215l117 131l175 36zM513 713q91 0 155 -64t64 -155t-64 -155t-155 -64t-155 64
t-64 155t64 155t155 64z" />
    <glyph glyph-name="tiaojianxing1" unicode="&#xe60f;" 
d="M831 234q1 3 1 6v155q0 28 -19.5 47.5t-47.5 19.5h-224v78q46 9 76.5 45.5t30.5 84.5q0 54 -39 93t-93.5 39t-93 -39t-38.5 -93q0 -48 30 -84.5t76 -45.5v-78h-224q-28 0 -47.5 -19.5t-19.5 -47.5v-154q-42 -12 -70 -47.5t-28 -80.5q0 -55 39 -93.5t93.5 -38.5t93 38.5
t38.5 93.5q0 50 -33 87t-81 44v151q0 7 4.5 11.5t10.5 4.5h499q7 0 11.5 -4.5t4.5 -11.5v-155v-6q-46 -8 -76.5 -44.5t-30.5 -84.5q0 -55 39 -93.5t93.5 -38.5t93 38.5t38.5 93.5q0 48 -30.5 84.5t-76.5 44.5v0z" />
    <glyph glyph-name="52" unicode="&#xe634;" 
d="M771 506l18 58q5 18 -9 31l-43 41l-14 59q-5 18 -23 22l-58 14l-42 44q-9 9 -22 9q-4 0 -8 -1l-58 -17l-58 17q-4 1 -8 1q-13 0 -22 -9l-42 -44l-58 -14q-18 -4 -23 -22l-14 -59l-43 -41q-14 -13 -9 -31l18 -58l-18 -57q-5 -18 9 -31l43 -41l14 -59q5 -18 23 -22l58 -14
l42 -44q9 -9 22 -9q4 0 8 1l58 17l58 -17q4 -1 8 -1q13 0 22 9l42 44l58 14q18 4 23 22l14 59l43 41q14 13 9 31zM578 204q-8 0 -15 2l-51 15l-51 -15q-7 -2 -15 -2q-24 0 -40 17l-37 38v-259q0 -9 9 -14q4 -2 8.5 -2t8.5 2l117 64l117 -64q4 -2 8.5 -2t8.5 2q9 5 9 14v259
l-37 -38q-16 -17 -40 -17z" />
    <glyph glyph-name="421" unicode="&#xe610;" 
d="M166 314l300 52l-213 217l-1 -4q-15 9 -32 15q-56 18 -108 -8.5t-70 -82t8.5 -108t81.5 -70.5q18 -5 35 -6zM214 174q-13 -11 -24 -26q-34 -47 -25 -105t56 -92t105 -25t92 56q11 15 17 31l4 -2l44 301l-272 -135zM809 174l3 3l-272 134l44 -300l3 2q7 -16 18 -31
q34 -47 91.5 -56t105 25t56.5 92t-25 105q-11 15 -24 26zM981 503.5q-18 55.5 -70 82t-108 8.5q-17 -6 -32 -15l-1 4l-213 -218l300 -51l-1 5q17 1 34 6q56 18 82.5 70.5t8.5 108zM648 668q4 17 4 35q0 59 -41 100t-99.5 41t-100 -41t-41.5 -100q0 -18 5 -35h-5l142 -269
l140 269h-4z" />
    <glyph glyph-name="icon" unicode="&#xe611;" 
d="M789 386q30 -10 52 -23q94 -52 137 -151q29 -66 25 -143q-1 -25 -22 -30q-14 -3 -24.5 6.5t-9.5 24.5q5 85 -38 154q-60 94 -168 116q-7 2 -19 3.5t-15 1.5q-10 2 -16.5 9t-7.5 16q-2 23 19 30q49 15 83 58q35 44 39 98q6 79 -45 138q-39 44 -98 57q-19 5 -50 5
q-10 0 -17.5 6t-9.5 15q-2 13 6 22.5t21 10.5q55 2 102 -19q113 -49 139 -165q29 -122 -58 -217l-12 -12q-1 0 -13 -11zM402 293q5 -9 18.5 -32t20.5 -35q42 -72 54 -91q2 -4 -1 -7q-41 -40 -89 -87q-3 -4 -7 0q-34 34 -88 87q-3 3 -1 7q20 34 91 155zM776 67q-6 38 -17 68
q-57 153 -206 222q-12 5 -31 12q99 64 115 174q16 114 -62 199q-72 79 -178.5 78.5t-178.5 -79.5q-75 -82 -61 -192q13 -114 116 -180q-1 0 -5 -2q-14 -5 -29 -12q-111 -51 -173 -156q-36 -60 -47 -131q-4 -23 15 -32q23 -10 38 9q5 5 7 20q21 106 96 175q129 119 299 79
q134 -31 206 -157q26 -44 37 -106q2 -12 12.5 -18.5t22.5 -4.5q12 3 19 13t5 21zM397 391q-78 0 -132.5 55t-54.5 132q0 78 55 132.5t132.5 54.5t132 -55t54.5 -132.5t-54.5 -132.5t-132.5 -54z" />
    <glyph glyph-name="72" unicode="&#xe620;" 
d="M896 896h-768q-40 0 -68 -28t-28 -68v-832q0 -40 28 -68t68 -28h768q40 0 68 28t28 68v832q0 40 -28 68t-68 28zM864 0h-704v768h704v-768zM288 320h448v-64h-448v64zM288 192h448v-64h-448v64zM352 608q0 40 28 68t68 28t68 -28t28 -68t-28 -68t-68 -28t-68 28t-28 68z
M512 512h-128q-40 0 -68 -19t-28 -45v-64h320v64q0 26 -28 45t-68 19z" />
    <glyph glyph-name="54" unicode="&#xe612;" 
d="M930 670v14h-151q1 28 1.5 58t-0.5 46v15h-266h-2h-2h-267q-2 -55 1 -119h-150v-60v0q3 -102 42 -181q41 -86 117 -142q63 -45 143 -65q42 -46 86 -58v-67q-1 -8 -5 -16.5t-16.5 -22t-30.5 -23.5t-53 -17t-79 -7h-25v-60h478v60h-25q-52 0 -90 9.5t-55 23t-27 27
t-11 22.5l-1 10v61q43 12 86 58q79 19 143 65q76 56 117 142q44 91 42 227v0zM189 469q-32 67 -35 155h94q3 -27 6 -49q27 -159 79 -253q-96 49 -144 147v0zM834 469q-47 -98 -145 -147q53 93 79 253q4 22 7 49h95q-3 -88 -36 -155v0zM834 469z" />
    <glyph glyph-name="rencai" unicode="&#xe613;" 
d="M445 -60q3 34 4 38q1 12 4.5 33.5t4.5 27.5t2 17t1 14q6 42 6 48q3 17 4 28q1 6 2 20t2 22q0 3 1 10.5t2 11.5q1 9 -9 43q-4 14 -4 15.5t2 3.5t3 2h87q6 0 4 -6q-2 -5 -9 -30q-2 -11 -3 -12q-2 -17 3 -43q1 -7 3 -30q1 -2 2 -18.5t2 -25.5q2 -12 5 -34.5t4 -29.5
q2 -14 4 -29q0 -7 1.5 -21.5t1.5 -21.5q2 -14 4 -26q0 -1 5 -7q0 3 4.5 19.5t6.5 24.5q2 7 6 21.5t5.5 19.5t4 15l3.5 14t4 15t5 17q1 5 3.5 14.5t3.5 14.5q2 5 3.5 10t3 11.5t2.5 9.5l3.5 14t4 15t4.5 16t5 17l3.5 14t3.5 16q2 5 5 15.5t4 15.5t3.5 14.5t3.5 13.5
q3 12 4 13q7 5 14 3q10 -4 28 -11.5t23 -9.5q11 -4 30 -11.5t24 -9.5q24 -9 43 -17q31 -13 51 -28q23 -17 33 -41q1 -4 3 -23q1 -7 2 -22t2 -23q1 -10 3.5 -29.5t2.5 -21.5v-2v-1q3 -38 4 -52q2 -25 3 -36q2 -14 -10 -26.5t-28 -12.5q-80 1 -330 0h-465q-23 0 -33 14
q-13 19 -7 45q1 1 1.5 2.5t0.5 2.5q0 4 1.5 22.5t2.5 28.5q0 9 2.5 25.5t2.5 18.5q0 1 1 3q3 47 4 51q1 5 1.5 15.5t2.5 18.5t7 15q16 22 39 37q16 10 75 33q12 5 33 14t27 11q32 13 51 20q6 2 10.5 -1t6.5 -10q1 -6 4 -17t4 -15q2 -5 4 -14.5t4 -14.5q1 -6 4 -17t5 -15
q1 -3 3 -13t4 -15q2 -7 6 -22t6 -23q2 -5 4.5 -15t2.5 -13q2 -5 5 -16t4 -17q2 -4 4 -14t3.5 -15t4.5 -15.5t5 -16.5q1 -5 7 -29l10 -40l6 -5v0zM308 608q9 51 10 59q7 33 30 69q30 48 79 74q25 14 47 17q34 5 37 5q15 0 39 -4q19 -5 35 -11q47 -20 79 -60q24 -30 37 -65
q4 -11 11 -42q5 -27 5 -38q0 -18 -5 -54q0 -4 -7 -31q-5 -22 -22 -55q-22 -45 -62 -78q-26 -22 -57 -32q-33 -11 -57 -9q-48 3 -88 30q-37 26 -58 60q-18 29 -29 51q-7 15 -16 49q-1 4 -4 25q0 3 -4 40v0zM308 608z" />
    <glyph glyph-name="24" unicode="&#xe614;" 
d="M493.5 885q-100.5 0 -185.5 -49.5t-134.5 -134.5t-49.5 -185.5t49.5 -185.5t134.5 -134.5t185.5 -49.5t185.5 49.5t134.5 134.5t49.5 185.5t-49.5 185.5t-134.5 134.5t-185.5 49.5zM494 195q-87 0 -161 43t-116.5 116.5t-42.5 160.5t42.5 161t116.5 116.5t161 42.5
t160.5 -42.5t116.5 -116.5t43 -161t-43 -160.5t-116.5 -116.5t-160.5 -43zM494 786q-112 0 -191.5 -79.5t-79.5 -191.5t79.5 -191.5t191.5 -79.5t191.5 79.5t79.5 191.5t-79.5 191.5t-191.5 79.5zM494 294q-92 0 -157 64.5t-65 156.5t65 157t157 65t156.5 -65t64.5 -157
t-64.5 -156.5t-156.5 -64.5zM724 269l93 -182q-62 24 -121 -6.5t-75 -95.5l-94 182l-33 -17l142 -275l33 17l-4 7q-21 40 -7 84t55 65t84.5 7t64.5 -55l3 -6l33 17l-3 6l-139 269zM249 239l-79 -152q62 24 121.5 -6.5t75.5 -95.5l84 163l40 -2l-139 -271l-33 17l3 7
q21 40 7 84t-54.5 65t-84.5 7t-65 -55l-3 -6l-33 17l4 6l128 249z" />
    <glyph glyph-name="jieshao" unicode="&#xe601;" 
d="M38 783v0v0v0zM361 720q23 0 39 -15.5t16 -38.5v-215q0 -22 -16 -38t-39 -16h-215q-22 0 -37.5 16t-15.5 38v215q0 23 15.5 38.5t37.5 15.5h215zM361 289q23 0 39 -15.5t16 -37.5v-217q0 -22 -16 -37.5t-39 -15.5h-215q-22 0 -37.5 15.5t-15.5 37.5v217q0 22 15.5 37.5
t37.5 15.5h215zM793 289q22 0 37.5 -15.5t15.5 -37.5v-217q0 -22 -15.5 -37.5t-37.5 -15.5h-216q-22 0 -38 15.5t-16 37.5v217q0 22 16 37.5t38 15.5h216zM912 625q18 -17 18 -40.5t-18 -39.5l-160 -160q-17 -18 -40 -18t-40 18l-160 160q-16 16 -16 39.5t16 40.5l160 160
q17 16 40 16t40 -16zM912 625z" />
    <glyph glyph-name="74" unicode="&#xe62d;" 
d="M514 725zM543.5 864q-90.5 0 -173 -35.5t-142.5 -95t-95 -142t-35 -173t35 -173t95 -142.5t142.5 -95t173 -35t173 35t142 95t95 142.5t35.5 173t-35.5 173t-95 142t-142 95t-173 35.5zM808 94l-305 295l-104 -108l18 -17l-52 -54l-198 191l52 54l18 -18l277 288l-18 18
l52 53l198 -190l-52 -54l-18 17l-104 -108l306 -295zM399 281v0l-79 76z" />
    <glyph glyph-name="14" unicode="&#xe616;" 
d="M520 763q-101 0 -186.5 -49.5t-135.5 -135t-50 -186.5t50 -186.5t135.5 -135t186.5 -49.5t186.5 49.5t135 135t49.5 186.5t-49.5 186.5t-135 135t-186.5 49.5zM519.5 52q-92.5 0 -170.5 45.5t-123.5 124t-45.5 170.5t45.5 170.5t123.5 124t170.5 45.5t170.5 -45.5
t123.5 -124t45.5 -170.5t-45 -170.5t-123.5 -124t-171 -45.5zM502 626h33v-218h202v-34h-235v252z" />
    <glyph glyph-name="62" unicode="&#xe62f;" 
d="M512 870q-99 0 -189 -38.5t-155 -103.5t-103.5 -155t-38.5 -189t38.5 -189t103.5 -155t155 -103.5t189 -38.5t189 38.5t155 103.5t103.5 155t38.5 189t-38.5 189t-103.5 155t-155 103.5t-189 38.5zM438 708.5q6 14.5 17 25.5t25.5 17.5t31.5 6.5t31.5 -6.5t25.5 -17.5
t17 -25.5t6 -31t-6 -31t-17 -25.5t-25.5 -17t-31.5 -6t-31.5 6t-25.5 17t-17 25.5t-6 31t6 31zM729 28h-434v95h162v320h-145v95h270v-415h147v-95z" />
    <glyph glyph-name="xinshoubidu" unicode="&#xe617;" 
d="M804 -66h-584q-65 0 -111.5 46.5t-46.5 111.5v584q0 65 46.5 111.5t111.5 46.5h584q65 0 111.5 -46.5t46.5 -111.5v-584q0 -65 -46.5 -111.5t-111.5 -46.5v0zM428 565l-138 -51v-308l138 51v308v0zM584 514l-138 51v-308l138 -51v308v0zM740 565l-139 -51v-308l139 51
v308v0z" />
    <glyph glyph-name="84" unicode="&#xe62e;" 
d="M75 -128q-5 0 -8.5 3.5t-3.5 8.5t3.5 9t8.5 4h70v987q0 5 3.5 8.5t9 3.5t9 -3.5t3.5 -8.5v-987h404q5 0 8.5 -4t3.5 -9t-3.5 -8.5t-8.5 -3.5h-499zM802 247q-82 0 -159 42l-2 1h-1q-100 40 -175 40q-43 0 -94.5 -14t-83.5 -27q-2 -1 -5 -1t-7 2q-5 4 -5 11v541q0 8 8 11
q13 6 33.5 13t70 18.5t87.5 11.5q86 0 183 -43h1q9 -5 23 -12t51 -17.5t71 -10.5q70 0 137 36v0h2l5 3q3 2 7 2q3 0 6 -1q6 -4 6 -11v-541q0 -7 -6 -11q-7 -4 -21 -11.5t-54 -19.5t-78 -12zM465 355q37 0 85.5 -11.5t68.5 -19t32 -12.5h2q7 -5 22 -12t54 -18t73 -11
q58 0 117 28l17 8v512l-39 -13q-51 -18 -99 -18q-81 0 -156 42l-1 1l-2 1q-93 39 -170 39q-64 0 -154 -30l-20 -7v-514l38 11q76 24 132 24z" />
    <glyph glyph-name="hxzfont15" unicode="&#xe609;" horiz-adv-x="1027" 
d="M187 330v-179l326 -170l327 170v179l-327 -170zM513 787l-513 -268l513 -269l421 219v-309h93v358z" />
    <glyph glyph-name="61" unicode="&#xe631;" 
d="M914 426q-35 98 -116.5 168t-188.5 94q28 40 72 63.5t94 23.5q84 0 143.5 -59.5t59.5 -142.5q0 -87 -64 -147v0zM524 767v-127q96 -4 176.5 -53t127 -131.5t46.5 -179.5q0 -120 -73 -218l84 -146l-70 -40l-72 125q-101 -85 -233 -85t-233 84l-74 -129l-70 41l86 149
q-74 98 -74 219q0 96 46 178t125.5 131.5t174.5 54.5v128q-15 5 -24.5 18t-9.5 29q0 21 14.5 36t36 15t36 -15t14.5 -36q0 -16 -9 -29t-25 -19v0zM226 276q0 -117 83 -200t200.5 -83t200.5 83t83 200.5t-83 200.5t-200.5 83t-200.5 -83t-83 -201v0zM594 215h-101
q-14 0 -24 10t-10 24v136q0 14 10 24t24 10t24 -10t10 -24v-102h67q15 0 24.5 -10t9.5 -24t-9.5 -24t-24.5 -10v0zM110 426q-64 60 -64 147q0 83 59.5 142.5t143.5 59.5q50 0 94 -23.5t72 -63.5q-107 -24 -188 -94t-117 -168v0z" />
    <glyph glyph-name="16pxxueyuan" unicode="&#xe626;" 
d="M512 320l512 256l-512 256l-512 -256l64 -32v-352h64v320zM512 762l371 -186l-371 -186l-371 186zM288 576q10 0 0 0v0v0zM736 576l-6 6q0 -4 0.5 -5t5.5 -1v0zM768 256q0 -106 -75 -181t-181 -75t-181 75t-75 181v122l-64 32v-154q0 -134 93 -227t227 -93t227 93t93 227
v154l-64 -32v-122z" />
    <glyph glyph-name="44" unicode="&#xe60b;" 
d="M928 832h-160v64h-64v-64h-384v64h-64v-64h-160q-13 0 -22.5 -9.5t-9.5 -22.5v-832q0 -13 9.5 -22.5t22.5 -9.5h832q13 0 22.5 9.5t9.5 22.5v832q0 13 -9.5 22.5t-22.5 9.5zM896 0h-768v768h128v-96h64v96h384v-96h64v96h128v-768zM480 553v-219l106 -114l46 44l-88 95
v194h-64zM681 624q-112 70 -242 40q-75 -18 -134 -68q-27 -23 -49 -52v32h-64v-167h167v64h-73q27 49 70 82.5t98 45.5q103 24 193 -32t114 -159t-32 -193t-159 -114t-193 32t-114 159l-63 -14q15 -63 52 -114.5t91 -85.5q78 -48 168 -48q37 0 73 8q63 15 114.5 51.5
t85.5 91.5q70 112 40 241q-15 63 -51.5 114.5t-91.5 85.5z" />
    <glyph glyph-name="32" unicode="&#xe630;" horiz-adv-x="1171" 
d="M1097 -128h-585q-30 0 -51.5 21.5t-21.5 51.5v366q0 30 21.5 51.5t51.5 21.5h585q30 0 51.5 -21.5t21.5 -51.5v-366q0 -30 -21.5 -51.5t-51.5 -21.5zM1097 311h-585v-366h585v366zM951 165h-293v73h293v-73zM951 18h-293v73h293v-73zM878 603h-220v-146h-73v146h-219
v-438h-293q-30 0 -51.5 21t-21.5 52v585q0 30 21.5 51.5t51.5 21.5h805q30 0 51.5 -21.5t21.5 -51.5v-366h-73v146zM293 823h-220v-146h220v146zM293 603h-220v-146h220v146zM293 384h-220v-146h220v146zM585 823h-219v-146h219v146zM878 823h-220v-146h220v146z" />
    <glyph glyph-name="71" unicode="&#xe62a;" 
d="M512 895q-104 0 -198 -40t-162 -108.5t-108.5 -162.5t-40.5 -197.5t40.5 -198t108.5 -162.5t162 -108t198 -40t198 40t162 108t108.5 162.5t40.5 198t-40.5 197.5t-108.5 162.5t-162 108.5t-198 40v0v0v0zM725 306q0 -12 -17 -23q-64 -34 -129 -43q-66 -9 -130 0
q-58 10 -110 38q-5 3 -8 8q-6 7 0 14q8 14 7 30t-12 29l-1 2q-2 3 -2 4v40q0 2 1 4q3 -1 8 -2.5t6 -2.5q118 -40 176 -59q6 -3 17 0q32 10 94.5 32t94.5 33q2 1 5 1v-1v-104v0v0v0zM835 490q-6 -4 -12 -6q-47 -16 -140.5 -48.5t-140.5 -48.5q-3 0 -7 -2t-5 -2q-7 -2 -13 0
q-26 9 -77.5 26.5t-77.5 25.5l-5 2q1 1 3.5 2t3.5 2q102 40 153 62q2 0 4.5 1t4.5 2q13 5 7 19q-5 12 -18 8q-1 0 -5 -1.5t-5 -2.5q-31 -12 -93 -37t-93 -37q-17 -8 -29 -32q-10 -20 -12 -54q0 -3 4 -6q11 -11 11.5 -24t-10.5 -24q-2 -2 -2 -7q2 -49 2 -73q0 -34 -19 -57
q-3 -2 -21 -18q-7 -6 -18 -1q-18 9 -38 24q29 34 42 66q13 25 17 55q2 6 -3 9q-14 10 -13 26.5t16 25.5q5 3 5 9q2 27 4 42q3 18 20 40q2 3 8 8q-9 3 -26.5 9t-27.5 9q-16 6 -20 8q-8 4 -8 9q-2 8 9 10q34 13 62 21q40 14 120 41t120 41q9 3 18 0q49 -17 146.5 -50.5
t146.5 -50.5q9 -2 13 -6q10 -10 -1 -15v0v0v0z" />
    <glyph glyph-name="53" unicode="&#xe633;" 
d="M991 611l-146 144q-21 22 -49 10.5t-28 -41.5v-144q0 -2 -2 -2h-702q-27 0 -45.5 -18.5t-18.5 -45t19 -45t45 -18.5h896q27 0 45.5 18.5t18.5 45.5v16q0 47 -33 80zM960 257h-896q-27 0 -45.5 -18.5t-18.5 -44.5v-17q0 -47 33 -80l146 -144q21 -21 49 -9.5t28 41.5v143
q0 2 2 2h702q27 0 45.5 18.5t18.5 45t-18.5 45t-45.5 18.5z" />
    <glyph glyph-name="41" unicode="&#xe618;" 
d="M392 400h89v-180h-89v180zM541 400h91v-180h-91v180zM512 880q-135 0 -249 -66.5t-180.5 -180.5t-66.5 -249t66.5 -249t180.5 -180.5t249 -66.5t249 66.5t180.5 180.5t66.5 249t-66.5 249t-180.5 180.5t-249 66.5zM751 400h-62v-180h62v-60h-478v60h59v180h-59v58h478
v-58zM751 489h-478v31l238 88l240 -88v-31z" />
    <glyph glyph-name="12" unicode="&#xe619;" 
d="M879 833h-646q-60 0 -98.5 -35t-38.5 -87v-651q0 -51 42 -87t103 -36h619q39 0 54 21t18 60h-4h-654q-36 0 -61.5 21t-25.5 51q0 46 24 69t63 23h634q12 0 24 -3v532q0 8 0.5 27.5t0 27t-1.5 22t-4.5 20t-9.5 13t-15.5 10t-22.5 2.5zM847 682v-420l-567 -1
q-89 0 -100 -13v-6q-3 3 0 6v434q0 30 33 50.5t83 20.5h496q16 0 27 -4.5t16.5 -9t8 -16.5t3 -18t0.5 -23zM318 141q-33 0 -53 -12.5t-20 -38.5q0 -13 21.5 -22.5t51.5 -9.5h505q29 0 44.5 9t15.5 23q0 16 -16.5 33.5t-43.5 17.5h-505z" />
    <glyph glyph-name="yonghuzhuce" unicode="&#xe63a;" horiz-adv-x="1054" 
d="M278 523q0 -18 12 -30.5t29 -12.5v0v0q7 -88 67.5 -158t140.5 -70t140.5 70t66.5 158h0.5h0.5q17 0 29 12.5t12 30.5q0 28 -24 40q12 39 12 81q0 104 -69.5 178t-168 74t-168 -74t-69.5 -178q0 -42 13 -81q-24 -12 -24 -40zM1047 -11q-148 144 -343 193q-5 2 -10 2h-12
q-6 0 -10 -2q-61 -33 -145 -33t-145 33q-5 2 -10 2h-9h-5q-200 -48 -351 -195q-7 -6 -7 -16v-79q0 -9 6.5 -15.5t15.5 -6.5h1010q9 0 15.5 6.5t6.5 15.5v79q0 10 -7 16z" />
    <glyph glyph-name="34" unicode="&#xe62c;" 
d="M899 482v-138q0 -25 -13 -46t-34 -32v-270h-70l-25 171l-26 -171h-64v244q42 41 42 101v150q0 42 -23 77q10 2 20 2h106q36 0 61.5 -26t25.5 -62v0zM757 772q37 0 64 -27t27 -65.5t-27 -65.5t-64.5 -27t-64 27t-26.5 65.5t26.5 65.5t64.5 27v0zM514 806q41 0 70 -29.5
t29 -71t-29 -71t-70 -29.5t-70 29.5t-29 71t29 71t70 29.5v0zM360 491q0 39 27.5 67t66.5 28h115q39 0 66.5 -28t27.5 -67v-150q0 -28 -14 -50.5t-37 -34.5v-294h-70l-28 186l-28 -186h-75v294q-23 12 -37 34.5t-14 50.5v150v0zM267 772q38 0 64.5 -27t26.5 -65.5
t-26.5 -65.5t-64 -27t-64.5 27t-27 65.5t27 65.5t64 27v0zM125 482q0 36 25.5 62t61.5 26h106q10 0 20 -2q-23 -35 -23 -77v-150q0 -60 42 -101v-244h-64l-26 171l-25 -171h-70v270q-21 11 -34 32t-13 46v138v0v0z" />
    <glyph glyph-name="dangan" unicode="&#xe602;" 
d="M330 483h-123q-15 0 -25.5 -10.5t-10.5 -25.5v-495q0 -15 10.5 -25.5t25.5 -10.5h123q15 0 25.5 10.5t10.5 25.5v495q0 15 -10.5 25.5t-25.5 10.5zM268.5 -8q-21.5 0 -37 15t-15.5 36.5t15.5 37t37 15.5t37 -15.5t15.5 -37t-15.5 -36.5t-37 -15zM321 184h-105v204h105
v-204zM751 469q-12 14 -30.5 14t-30.5 -14l-90 -106q-8 -10 -2.5 -21.5t17.5 -11.5h34v-384q0 -12 9 -21t21 -9h83q13 0 22 9t9 21v384h33q13 0 18.5 11.5t-3.5 21.5zM571 331q-13 28 7 51l28 32v33q0 15 -10.5 25.5t-25.5 10.5h-123q-14 0 -25 -10.5t-11 -25.5v-495
q0 -15 11 -25.5t25 -10.5h123q15 0 25.5 10.5t10.5 25.5v352q-25 5 -35 27zM508.5 -8q-21.5 0 -36.5 15t-15 36.5t15 37t36.5 15.5t37 -15.5t15.5 -37t-15.5 -36.5t-37 -15zM561 184h-104v204h104v-204zM777 714q-11 1 -17 9q-27 37 -68.5 58t-88.5 21h-11q-9 0 -15 5
q-59 44 -132 44q-64 0 -117 -34t-80 -91q-6 -12 -18 -13q-71 -10 -119 -65t-48 -128q0 -45 18.5 -84t51.5 -66v77q0 21 11 39q-5 17 -5 34q0 49 35 83.5t83 34.5q4 0 10 -1q14 -1 25.5 7.5t15.5 21.5q11 48 49.5 78t87.5 30q58 0 100 -41q14 -14 34 -10q12 3 24 3
q35 0 63.5 -18t43.5 -49q11 -25 38 -22q6 1 12 1q49 0 83.5 -34.5t34.5 -83.5q0 -55 -42 -91l35 -41q7 -9 11 -20q34 27 53.5 66.5t19.5 85.5q0 76 -51.5 131.5t-126.5 62.5z" />
    <glyph glyph-name="31" unicode="&#xe61c;" horiz-adv-x="1026" 
d="M512.5 773q-91.5 0 -175 -35.5t-143.5 -96t-96 -144t-36 -174.5q0 -169 110 -296l-105 -129l32 -26l102 125q62 -59 142.5 -92t169.5 -33t169.5 33t142.5 93l102 -126l32 26l-105 130q109 127 109 295q0 91 -35.5 174.5t-96 144t-144 96t-175 35.5zM513 -87
q-111 0 -205.5 55t-149.5 149t-55 205.5t55 205.5t149.5 149t205.5 55t205.5 -55t149 -149t54.5 -205.5t-54.5 -205.5t-149 -149t-205.5 -55zM328 896h-122q-85 0 -145 -60t-60 -145v-123h58l269 270v58zM287 855l-245 -246v82q0 68 48 116t116 48h81v0zM820 896h-122v-58
l269 -270h58v123q0 85 -60 145t-145 60zM984 609v0l-245 246v0h81q68 0 116 -48t48 -116v-82zM493 323h-226v-41h267v368h-41v-327z" />
    <glyph glyph-name="zhuanye" unicode="&#xe61a;" 
d="M693 604q-6 9 -3.5 20t12.5 16l162 99q11 6 12 18t-8 20q-71 63 -166 63q-89 0 -175 -53q-88 -54 -123 -149t-2 -190l-303 -304q-30 -31 -29.5 -73.5t31.5 -71.5l31 -31q31 -29 73 -29q44 0 75 31l319 321q56 27 121 27q47 0 108 -16l1 -1q16 -4 26 9t2 27zM720 366
q-79 0 -147 -35q-3 -1 -6 -4l-322 -324q-16 -16 -40 -16q-23 0 -39 15l-31 31q-16 16 -16.5 38.5t15.5 38.5l314 315q11 11 5 26q-33 82 -5 165.5t104 129.5q75 46 150 46q59 0 107 -31l-133 -80q-27 -16 -34 -46t9 -56l134 -218q-33 5 -65 5zM942 653q-2 13 -14 18.5
t-23 -1.5l-148 -90l25 -41l115 70q0 -91 -60 -159l27 -43q48 49 68.5 114t9.5 132zM200 115.5q-12 -7.5 -15.5 -21t4 -25.5t21.5 -15.5t26.5 4t16 21.5t-4.5 26t-22 15t-26 -4.5zM629 513l-74 -19q-8 -2 -12.5 -9t-2.5 -16q4 -15 20 -15h6l74 19q8 2 12.5 9.5t2.5 15.5
t-9.5 12.5t-16.5 2.5zM617.5 559q-2.5 8 -9.5 12.5t-16 2.5l-74 -19q-8 -2 -12.5 -9.5t-2.5 -15.5q4 -15 20 -15h5l75 19q8 2 12.5 9.5t2 15.5zM581 412q4 -16 20 -16q3 0 6 1l74 19q8 2 12.5 9t2.5 15.5t-9.5 13t-16.5 2.5l-74 -19q-8 -2 -12.5 -9.5t-2.5 -15.5z" />
    <glyph glyph-name="article" unicode="&#xe628;" 
d="M813 834h-621q-24 0 -42 -9t-26.5 -21.5t-13 -25t-5.5 -21.5v-9v-728q0 -4 0.5 -9.5t5 -20.5t13 -26t26.5 -20.5t43 -9.5h515l190 150v664q0 4 -1 9.5t-5.5 20.5t-12.5 26t-25 20.5t-41 9.5zM855 105l-172 -128h-471q-18 0 -31 7t-19.5 15.5t-10 19.5t-3.5 15.5v6.5v686
v6.5t3.5 15.5t10 19.5t19.5 15.5t31 7h579q18 0 31 -6.5t19 -16t9.5 -19t3.5 -16.5l1 -6v-622zM255 363h493v-43h-493v43zM255 534h493v-43h-493v43zM255 705h236v-42h-236v42zM812 213h-193v-193h43v150h150v43z" />
    <glyph glyph-name="441" unicode="&#xe629;" 
d="M511 893q-104 0 -199 -40.5t-163.5 -109t-109 -163.5t-40.5 -199t40.5 -199t109 -163.5t163.5 -109t199 -40.5t199 40.5t163.5 109t109 163.5t40.5 199t-40.5 199t-109 163.5t-163.5 109t-199 40.5zM511 -99q-98 0 -186.5 38t-153 102.5t-102.5 153.5t-38 186.5t38 186.5
t102.5 153t153 102.5t186.5 38.5t187 -38.5t153 -102.5t102 -153t38 -186.5t-38 -186.5t-102 -153.5t-153 -102.5t-187 -38zM456 441q11 35 -1.5 76.5t-46.5 74.5q-44 44 -99.5 51.5t-89.5 -26.5t-26.5 -89.5t51.5 -99.5q32 -33 72 -46t75 -4l253 -254q14 -13 32.5 -13
t32 13.5t13.5 32t-13 32.5zM456 441zM585 352l46 46q16 -7 32 -7q32 0 55 22l112 112l-25 24l-97 -98q-5 -4 -11.5 -4t-11.5 4l-4 5q-5 5 -5 11.5t5 10.5l97 98l-29 30l-98 -98q-5 -5 -11.5 -5t-10.5 5l-5 5q-5 4 -5 10.5t5 11.5l98 98l-24 24l-112 -112q-23 -22 -23 -54
q0 -14 5 -27l-48 -48zM585 352zM294 190q-13 -14 -13 -32.5t13.5 -32t32 -13.5t32.5 14l122 122l-64 64zM294 190z" />
    <glyph glyph-name="lishi" unicode="&#xe61b;" 
d="M257 768v-58q1 -23 23 -34q31 -16 60 4q16 12 16 32v62h307v-2.5v-2.5v-54q-1 -15 7.5 -26.5t22.5 -16.5q27 -9 51 7q18 13 18 35v17v20v17v6h5h23h27.5h23.5q48 -1 77 -33q20 -23 20 -54v-323v-340q1 -34 -20 -57t-51 -30q-13 -3 -29 -3h-656q-41 0 -68 22
q-32 25 -32 65v283q0 328 -1 378q0 36 21 59t52 30q11 3 23 3h77h3v-6zM875 612h-731v-577q1 -12 8 -20q10 -11 30 -11h653q7 0 13 1q11 1 19 10t8 24v567v6v0zM331 759v-50q0 -25 -25 -24q-19 2 -22 17q-1 1 -1 5v104q0 24 25 23q7 -1 15 -5t8 -14v-56v0zM688 759v52
q0 12 8 18.5t20 3.5q17 -2 19 -15q1 -2 1 -6v-105q0 -18 -19 -22q-10 -1 -18 3q-11 5 -11 17v27v27v0zM487 448v-156l76 -82l34 31l-64 69v138h-46zM458 529q-55 -12 -97 -48q-20 -16 -36 -37v23h-46v-119h121v45h-53q40 73 122 92q74 17 139.5 -23t83 -113.5t-23 -138
t-115.5 -81.5t-140.5 23t-82.5 114l-45 -11q22 -92 103 -142q57 -35 122 -35q27 0 53 6q94 22 144.5 102t29 172.5t-103 142.5t-175.5 28z" />
    <glyph glyph-name="hexinrencai" unicode="&#xe61d;" 
d="M512.5 -79q-49.5 0 -93 43.5t-73.5 124.5q-1 3 -5 3h-1q-40 -7 -75 -7q-114 0 -153 67q-25 43 -9 103t71 126q2 3 0 6q-9 11 -17 21q-45 61 -56.5 114.5t11.5 92.5q38 67 153 67q35 0 75 -6h1q4 0 5 3q30 80 73.5 124t93 44t93.5 -44t74 -124q1 -3 4 -3h1q40 6 75 6
q115 0 154 -67q23 -39 11 -92.5t-57 -114.5q-7 -10 -16 -21q-3 -3 0 -6q54 -66 70.5 -126t-8.5 -103q-39 -67 -154 -67q-35 0 -75 7h-1q-3 0 -4 -3q-30 -81 -74 -124.5t-93.5 -43.5zM513 144h-2q-58 -25 -112 -40q-3 0 -4 -2t0 -4q24 -62 55 -95.5t63 -33.5t63 33.5t55 95.5
q1 2 -0.5 4t-3.5 2q-54 15 -112 40h-2zM815 345q-2 0 -3 -2q-40 -40 -90 -77q-2 -2 -2 -4q-7 -62 -22 -117q-1 -2 0.5 -4t3.5 -3q31 -4 58 -4q87 0 112 42q16 28 2.5 71.5t-55.5 95.5q-1 2 -3 2h-1zM210 345q-2 0 -4 -2q-41 -52 -54.5 -95.5t2.5 -71.5q24 -42 111 -42
q28 0 59 4q2 1 3.5 3t0.5 4q-15 55 -22 117q-1 3 -2 4q-51 38 -90 77q-2 2 -4 2v0zM658.5 220h-3.5q-17 -12 -35 -22l-36 -20q-3 -1 -3 -4.5t3 -4.5q30 -11 59 -18h1q4 0 5 3q8 29 14 60q1 4 -2 6h-2.5zM367.5 220h-2.5q-3 -2 -2 -6q6 -31 13 -60q1 -3 5 -3h2q28 7 58 18
q4 1 4 4.5t-3 4.5l-36 20t-36 22h-2.5zM513 569h-2q-41 -19 -81 -42q-38 -22 -76 -49q-2 -1 -3 -4q-4 -45 -4 -90.5t4 -90.5q1 -2 3 -4q37 -26 76 -48.5t81 -41.5q1 -1 2 -1t2 1q41 18 81 41q38 23 76 49q2 2 2 4q5 45 5 90.5t-5 90.5q0 3 -2 4q-37 27 -76.5 49.5
t-80.5 41.5h-2zM731 430h-2q-3 -2 -3 -5q1 -20 1 -41q0 -20 -1 -42q0 -3 3 -5h2q2 0 4 1q24 21 45 42q3 4 0 7q-21 21 -45 42q-2 1 -4 1zM294 430q-2 0 -3 -1q-24 -21 -45 -42q-4 -3 0 -7q21 -21 45 -42q1 -1 3 -1h3q3 2 2 5v42v41q1 3 -3 5h-2zM266 634q-87 0 -112 -43
q-15 -25 -3.5 -66t45.5 -88l10 -12q1 -2 4 -2v0q2 0 4 1q40 40 90 78q2 2 2 4q7 62 22 117q1 2 -0.5 4t-3.5 2q-31 5 -58 5zM760 634q-27 0 -58 -5q-2 0 -3.5 -2t-0.5 -4q15 -56 22 -117q0 -3 2 -4q50 -38 90 -78q2 -1 4 -1v0q3 0 4 2q5 6 9 12q35 47 46.5 87.5t-3.5 66.5
q-25 43 -112 43zM381 617q-4 0 -5 -4q-8 -29 -13 -60q-1 -3 2 -5q1 -1 2.5 -1t2.5 1q18 11 36 21.5t36 19.5q3 2 3 5.5t-4 4.5q-30 10 -58 18h-2zM644 617h-1q-28 -8 -59 -18q-3 -1 -3 -4.5t3 -5.5q18 -9 36 -19.5t35 -21.5q2 -1 3.5 -1t2.5 1q3 2 2 5q-6 32 -14 60
q-1 4 -5 4zM513 798q-32 0 -63 -33.5t-55 -94.5q-1 -2 0 -4t4 -3q54 -15 112 -39q1 -1 2 -1t2 1q58 25 112 39q2 1 3.5 3t0.5 4q-24 61 -55 94.5t-63 33.5zM513 302q-34 0 -58 24t-24 58t24 57.5t58 23.5t57.5 -23.5t23.5 -57.5t-23.5 -58t-57.5 -24zM513 417
q-14 0 -23.5 -10t-9.5 -23.5t9.5 -23t23.5 -9.5t23.5 9.5t9.5 23t-9.5 23.5t-23.5 10z" />
    <glyph glyph-name="13" unicode="&#xe603;" 
d="M796 21h-229v-58h229q24 0 41 17t17 41v471h-58v-471zM796 492h58v17l-58 -1v-16zM796 805h-577q-24 0 -41 -17t-17 -41v-343l58 1v342h577v-239l58 1v238q0 24 -17 41t-41 17zM219 747h230v58h-230q-24 0 -41 -17t-17 -41v-471h58v471zM219 276h-58v-17l58 1v16z
M219 -37h577q24 0 41 17t17 41v342h-58v-342h-577v239l-58 -1v-238q0 -24 17 -41t41 -17v0zM90 337v-375v375zM419 533h301v-37h-301v37zM656 666h37v-55h-37v55zM574 666h38v-55h-38v55zM492 666h38v-55h-38v55zM403 666h37v-55h-37v55zM324 666h37v-55h-37v55zM297 435
h423v-38h-423v38zM297 336h423v-37h-423v37zM297 237h423v-37h-423v37zM297 138h423v-37h-423v37z" />
    <glyph glyph-name="73" unicode="&#xe627;" 
d="M970 -67v494h-61v-494h-563q5 -31 9 -61h554q25 0 43 17.5t18 43.5zM293 175l7 7q0 -3 1 -8.5t2 -8.5v249q-40 -125 -10 -239zM303 -67v232q-1 3 -2 8.5t-1 8.5l-7 -7q3 -13 7 -23q-4 10 -7 23v0q-30 114 10 239v280h202q146 104 457 31q-18 30 -53 30h-606
q-25 0 -43 -17.5t-18 -43.5v-761q0 -26 18 -43.5t43 -17.5h52q-4 30 -9 61h-43zM909 427h61v18l-61 -1v-17zM505 694h404v-250l61 1v249q0 17 -8 31q-311 73 -457 -31zM125 95v740h589v-54l58 -1v55q0 24 -17 41t-41 17h-589q-25 0 -42 -17t-17 -41v-740q0 -25 17 -42
t42 -17h84v59h-84zM470 88l-59 -115l122 23zM492 109l65 -100l250 176l-67 100zM763 303l69 -103l20 20q6 21 -18 58q-11 16 -24 25.5t-20 11.5l-7 2zM390 580h91v-38h-91v38zM555 580h91v-37h-91v37zM714 580h91v-37h-91v37zM390 486h91v-37h-91v37zM555 487h91v-38h-91v38
zM714 487h91v-38h-91v38zM390 387h91v-38h-91v38zM555 388h91v-38h-91v38zM394 285h90v-38h-90v38z" />
    <glyph glyph-name="t-pv" unicode="&#xe63e;" 
d="M512 -128q-139 0 -257 68.5t-186.5 186.5t-68.5 257t68.5 257t186.5 186.5t257 68.5t257 -68.5t186.5 -186.5t68.5 -257t-68.5 -257t-186.5 -186.5t-257 -68.5zM512 849q-95 0 -181 -36.5t-148.5 -99t-99 -148.5t-36.5 -181t36.5 -181t99 -148.5t148.5 -99t181 -36.5
t181 36.5t148.5 99t99 148.5t36.5 181t-36.5 181t-99 148.5t-148.5 99t-181 36.5zM611 244l-97 282h65l61 -199q4 -15 5 -28h1q2 13 7 29l60 198h63l-98 -282h-67zM379 343h-30v-99h-60v282h96q106 0 106 -89q0 -43 -32 -69.5t-80 -24.5zM375 479h-26v-90h26q52 0 52 46
q0 44 -52 44z" />
    <glyph glyph-name="82" unicode="&#xe62b;" 
d="M464 328q29 -13 47 -13t49 13l432 193q24 11 24 46.5t-24 49.5l-432 226q-26 15 -46.5 15t-49.5 -15l-432 -226q-24 -16 -24.5 -49t24.5 -47zM512 -38l-441 202l-68 34q0 -24 7 -48.5t22 -32.5l432 -194q29 -13 47 -13t49 13l432 194q14 6 21.5 31.5t7.5 49.5l-68 -34z
M464 126q29 -14 47 -14t49 14l432 193q14 7 21.5 32.5t7.5 48.5l-68 -33l-441 -203l-441 203l-68 33q0 -24 7 -48.5t22 -32.5z" />
    <glyph glyph-name="11" unicode="&#xe604;" horiz-adv-x="1048" 
d="M60 299v-20h38v223h82v97h53v-600h-229v300h56zM403 88v-40h47v445h-212v-25h189v-33h-189v-387h49v40h116zM362 401h63v-63h-63v63zM362 292h63v-63h-63v63zM362 184h63v-62h-63v62zM264 401h63v-63h-63v63zM263 292h63v-63h-63v63zM263 122v62h63v-62h-63zM403 43v5
h-116v-5h-118v-44h350v44h-116zM753 769h-230v-25h-31v-745h47v59h214v-59h41v745h-41v25zM632 142h-103v102h103v-102zM528 529v103h102v-103h-102zM632 274h-103v102h103v-102zM632 403h-103v102h103v-102zM633 670h-107v38h107v-38zM757 142h-102v102h102v-102zM654 529
v103h102v-103h-102zM757 274h-102v102h102v-102zM757 403h-102v102h102v-102zM759 670h-107v38h107v-38zM846 -6v454q21 2 48.5 -5t48.5 -15t48 -8t49 14v167q-22 -13 -46.5 -13.5t-47 6.5t-45 14.5t-47.5 7t-46 -14.5v-1v0v-608z" />
    <glyph glyph-name="rencai1" unicode="&#xe61e;" 
d="M676 132h1l-59 282l-8 39l-33 156v0v0.5v0.5l90 74v0q10 6 10 17q0 39 -46.5 67t-112.5 28t-112.5 -28t-46.5 -67q0 -11 10 -17v0l91 -74q-1 0 -1 -0.5v-0.5v0l-99 -477v0q0 -1 -0.5 -2t-0.5 -2q0 -7 5 -12v0l139 -153v0q6 -7 15 -7t15 7v0l139 153v0q5 5 5 12
q0 1 -0.5 2t-0.5 2zM400 708q6 21 39.5 35.5t78.5 14.5t78.5 -14.5t39.5 -35.5l-118 -97zM518 5l-117 129l93 448l9 -8l3 -3l2 -1v0q5 -3 10 -3t10 3v0l2 1l3 3l10 8l26 -129l8 -39l59 -280z" />
    <glyph glyph-name="weixiu" unicode="&#xe61f;" 
d="M512 806q-115 0 -212 -56.5t-153.5 -153.5t-56.5 -212t56.5 -212t153.5 -153.5t212 -56.5t212 56.5t153.5 153.5t56.5 212t-56.5 212t-153.5 153.5t-212 56.5zM564 211q-3 -28 -26 -40t-47 -1q-23 9 -29 38l-1 10q1 22 11 34q16 19 43 18q25 -1 38.5 -18t10.5 -41z
M568 542q-2 -10 -7 -30t-6 -27q-9 -44 -13 -73q-1 -7 -9 -70q0 -5 -0.5 -10t-1 -11.5t-1.5 -10.5h-34v4q-2 10 -4 28t-4 33t-4 28q-5 32 -15 82q-2 10 -6.5 28l-5.5 22q-4 14 -3 22q5 41 43 49q2 0 8 0.5t10 0.5h5q36 -3 46 -34q5 -13 2 -31z" />
    <glyph glyph-name="rencaiwang" unicode="&#xe621;" 
d="M886 74q-1 15 -5 29q-26 104 -103 179t-182 98q-1 -1 -3 -2v0q2 1 3 2q67 25 108.5 84.5t41.5 133.5q0 96 -68.5 164.5t-165 68.5t-165 -68.5t-68.5 -164.5q0 -75 42.5 -134.5t110.5 -84.5q2 -1 5 -2q-3 1 -5 2l-0.5 -0.5l-0.5 -0.5q-2 1 -3 2q-105 -23 -182 -98
t-103 -179q-4 -14 -5 -29q-1 -5 -1 -11q0 -52 37 -89t89 -37h248h2h248q52 0 89 37t37 89q0 6 -1 11v0zM442 375q-1 0 -3 1q2 -1 3 -1v0zM466 369v0v0v0zM461 370h-1h1v0zM456 371h-0.5h-0.5h0.5h0.5v0zM451 372q0 1 -0.5 1h-0.5h0.5t0.5 -1v0zM446 374h-0.5h-0.5h0.5h0.5v0
zM513 -43v1h-1l-1 -1l-109 100l82 193q-11 12 -22 30.5t-16 30.5l-5 12v3q34 29 70 27v0h0.5h0.5h0.5h0.5v0q36 2 70 -27v-3q-17 -46 -43 -73l82 -193l-109 -100v0z" />
    <glyph glyph-name="t-uv" unicode="&#xe63f;" 
d="M511 864q-97 0 -186 -38t-153 -102t-102 -153t-38 -186.5t38 -186t102 -152.5t153 -102t186.5 -38t186 38t152.5 102t102 153t38 186t-38 186t-102 153t-153 102t-186 38zM492 374q0 -74 -37 -115q-38 -42 -114 -42q-75 0 -113 42q-37 40 -37 115v238h33v-238
q0 -62 27 -93q29 -34 90 -34t91 34q27 32 27 93v238h33v-238v0zM722 225h-42l-146 387h37l129 -352h2l129 352h37z" />
    <glyph glyph-name="icon1" unicode="&#xe622;" 
d="M928 416v0q-13 0 -22.5 -9.5t-9.5 -22.5q0 -102 -52 -192q-38 -66 -98 -112t-134.5 -66t-149.5 -10t-141.5 48t-112.5 98.5t-66 134.5t-10 149.5t48 141.5q48 83 129 133.5t177 57.5q13 1 21.5 11t7.5 23t-11 22t-23 8q-111 -8 -206 -67t-150 -156q-45 -78 -56.5 -165.5
t11.5 -174t77 -157t131 -114.5q105 -60 224 -60q58 0 116 15q87 23 157 77t115 131q60 104 60 224q0 13 -9.5 22.5t-22.5 9.5zM614 746h205l-226 -196q-16 -14 -8.5 -35t29.5 -21h291q13 0 22.5 9.5t9.5 22.5t-9.5 22.5t-22.5 9.5h-205l226 196q17 14 9 35t-30 21h-291
q-13 0 -22.5 -9.5t-9.5 -22.5t9.5 -22.5t22.5 -9.5zM356 397v-31q0 -13 9 -22.5t22.5 -9.5t22.5 9.5t9 22.5v31q0 14 -9 23t-22.5 9t-22.5 -9t-9 -23zM605 397v-31q0 -13 9.5 -22.5t22.5 -9.5t22.5 9.5t9.5 22.5v31q0 14 -9.5 23t-22.5 9t-22.5 -9t-9.5 -23zM479 282
q-7 11 -19.5 14t-24 -4t-14.5 -20t4 -24q11 -18 34 -33.5t52.5 -15.5t53 15.5t34.5 33.5q7 11 4 23.5t-13.5 20t-23.5 4.5t-21 -14q-13 -19 -33 -19t-33 19z" />
    <glyph glyph-name="pv" unicode="&#xe63b;" 
d="M899 673l-112 -443l-117 443h-124l186 -577h105l178 577h-116zM141 396v202h-1l1 75h-89v-599h89v245l-1 77h1zM497 497q1 36 -8.5 65t-24.5 47t-35.5 31t-37.5 19t-36 9.5t-25.5 4t-10.5 0.5h-179v-75l177 -2q4 0 9 -1t19.5 -6.5t26 -14t22.5 -25t14 -38.5
q4 -25 -3 -46.5t-19.5 -33t-26 -19.5t-23.5 -11l-10 -2l-186 -2v-78l193 1q38 5 67 17t46 28t28.5 34t16 35.5t6 31.5t0.5 22v9z" />
    <glyph glyph-name="xinshoubidu-copy" unicode="&#xe623;" horiz-adv-x="1983" 
d="M890 858q-93 0 -178.5 -36t-147 -98t-98 -147t-36.5 -178q0 -94 39 -185q3 -2 3 -3v-1q25 -50 38 -73v-136h149q68 -32 86 -38q68 -23 144 -23q141 0 256 77.5t168 203.5q36 86 36 179t-36.5 178t-98 146.5t-146.5 97.5t-178 36v0zM885 129q-17 0 -29 12t-12 28.5
t12 28.5t29 12t28.5 -11.5t11.5 -28.5t-12 -29t-28 -12v0zM938 367q-7 -4 -8 -7q-3 -3 -4 -16v-26q0 -17 -12 -28.5t-29 -11.5q-15 0 -26 9.5t-14 24.5q0 1 -0.5 6.5t-0.5 9.5q0 40 1 53q0 8 2 15q10 34 43 45q3 1 25 8q21 7 33.5 25t12.5 40q0 29 -20.5 49.5t-49.5 20.5
q-26 0 -46 -17.5t-23 -43.5q0 -6 -5 -29q-3 -12 -13.5 -20.5t-23.5 -8.5q-21 0 -33 18q-9 15 -11 36q0 5 1 14t1 10q10 55 53 91.5t100 36.5q65 0 110.5 -45.5t45.5 -110.5q-1 -52 -31.5 -92.5t-77.5 -55.5v0zM938 367z" />
    <glyph glyph-name="81" unicode="&#xe625;" 
d="M768 384v-461h-51v666h102l-307 205l-307 -205h102v-666h-51v461h-205v-512h922v512h-205zM102 282h103v-52h-103v52zM102 179h103v-51h-103v51zM102 77h103v-51h-103v51zM512 538q42 0 72 -30t30 -72.5t-30 -72.5t-72 -30t-72 30t-30 72.5t30 72.5t72 30zM410 -77v256
h204v-256h-204zM819 282h103v-52h-103v52zM819 179h103v-51h-103v51zM819 77h103v-51h-103v51z" />
    <glyph glyph-name="arrow-left" unicode="&#xe638;" 
d="M428 398l206 -197q6 -8 5.5 -18t-8.5 -16.5t-18.5 -6t-16.5 8.5l-206 197q-6 8 -5.5 18.5t8.5 17t18.5 5.5t16.5 -9zM634 568l-206 -198q-6 -7 -16.5 -8t-18.5 5.5t-8.5 16.5t5.5 18l206 197q6 8 16.5 9t18.5 -5.5t8.5 -16.5t-5.5 -18z" />
    <glyph glyph-name="uv" unicode="&#xe63c;" 
d="M409 325q0 -90 -40 -137q-43 -49 -132 -49t-132 49q-40 46 -40 137v347h-48v-347q0 -110 54 -169q55 -60 166 -60t167 61q53 59 53 168v347h-48v-347v0zM954 672l-190 -514h-2l-189 514h-54l214 -565h62l213 565h-54z" />
    <glyph glyph-name="xinzengyonghu" unicode="&#xe63d;" 
d="M612 807q88 0 150.5 -61t62.5 -148t-62.5 -148.5t-151 -61.5t-150.5 61.5t-62 148.5t62 148t151 61v0zM612 807q88 0 150.5 -61t62.5 -148t-62.5 -148.5t-151 -61.5t-150.5 61.5t-62 148.5t62 148t151 61v0zM532 318h178q114 0 194.5 -79t80.5 -191v-18q0 -14 -9 -24.5
t-29.5 -17t-41.5 -10.5t-57 -6t-64 -2.5t-74 -0.5h-178q-50 0 -74.5 0.5t-63.5 2t-58 5.5t-40.5 10.5t-30.5 17t-9 25.5v18q0 112 81 191t195 79v0zM532 318zM63 576h319v-65h-319v65zM192 702h65v-319h-65v319z" />
    <glyph glyph-name="arrow-down" unicode="&#xe640;" 
d="M498 300l197 206q8 6 18 5.5t16.5 -8.5t6 -18.5t-8.5 -16.5l-197 -206q-8 -6 -18.5 -5.5t-17 8.5t-5.5 18.5t9 16.5zM328 506l198 -206q7 -6 8 -16.5t-5.5 -18.5t-16.5 -8.5t-18 5.5l-197 206q-8 6 -9 16.5t5.5 18.5t16.5 8.5t18 -5.5z" />
    <glyph glyph-name="arrow-up" unicode="&#xe641;" 
d="M526 468l-197 -206q-8 -6 -18 -5.5t-16.5 8.5t-6 18.5t8.5 16.5l197 206q8 6 18.5 5.5t17 -8.5t5.5 -18.5t-9 -16.5zM696 262l-198 206q-7 6 -8 16.5t5.5 18.5t16.5 8.5t18 -5.5l197 -206q8 -6 9 -16.5t-5.5 -18.5t-16.5 -8.5t-18 5.5z" />
  </font>
</defs>
</svg>
